<?xml version="1.0" encoding="utf-8"?>
<!-- Generator: Adobe Illustrator 26.4.1, SVG Export Plug-In . SVG Version: 6.00 Build 0)  -->
<svg version="1.1" id="Layer_1" xmlns="http://www.w3.org/2000/svg" xmlns:xlink="http://www.w3.org/1999/xlink" x="0px" y="0px"
	 width="358.5px" height="142.7px" viewBox="0 0 358.5 142.7" style="enable-background:new 0 0 358.5 142.7;" xml:space="preserve"
	>
<style type="text/css">
	.st0{fill:#292636;}
	.st1{fill:#F04F47;}
</style>
<g>
	<path class="st0" d="M0.1,28.9h42.4v11.8H13.9v15h23.5V67H13.9v26.1H0.1V28.9z"/>
	<path class="st0" d="M46.2,33.6c0-4.2,3.3-7.3,7.5-7.3s7.5,3.1,7.5,7.3c0,4.1-3.3,7.2-7.5,7.2C49.5,40.9,46.2,37.8,46.2,33.6z
		 M47.2,45.9h13v47.2h-13C47.2,93.1,47.2,45.9,47.2,45.9z"/>
	<path class="st0" d="M64.7,45.9h7.8v-3.5c0-8.7,4.7-13.6,14.2-13.6h10.6v11H89c-2.6,0-3.9,1.2-3.9,3.9v2.2h12.1v10.9H85.5V93h-13
		V56.8h-7.8V45.9z"/>
	<path class="st0" d="M102.5,56.8h-7.8V45.9h7.8V32.7h12.9v13.2h10.8v10.9h-10.8v20.7c0,3.3,1.3,4.7,4.7,4.7h6.4v10.9H116
		c-9,0-13.5-4.5-13.5-13.5V56.8z"/>
	<path class="st0" d="M129.8,45.9h13.8L155,79.5l11.2-33.6h13.9l-20.9,53.9c-2.9,7.8-5.3,11.7-12.7,11.7h-12.6v-11h7.2
		c3.3,0,4.4-0.8,5.7-4l1.2-3.1L129.8,45.9z"/>
	<path class="st0" d="M183.9,28.9h13.8v37.3c0,10.2,3.8,15.7,12.6,15.7c8.9,0,12.7-5.5,12.7-15.7V28.9h13.8v36.5
		c0,18.3-9.1,28.3-26.4,28.3s-26.3-10-26.3-28.3V28.9H183.9z"/>
	<path class="st0" d="M291.6,69.6c0,14.7-9.2,24-21.8,24c-6.5,0-11.2-2.7-14.2-6.5v24.3h-12.9V45.9H254l1.3,6.5
		c3-4,7.8-7.1,14.5-7.1C282.4,45.3,291.6,54.7,291.6,69.6z M278.4,69.4c0-8-4.6-13.5-11.7-13.5s-11.5,5.5-11.5,13.5
		c0,8.1,4.4,13.7,11.5,13.7C273.9,83.1,278.4,77.5,278.4,69.4z"/>
</g>
<g>
	<polygon class="st1" points="308.4,62.2 310.4,65 323.2,56.1 323.2,70.7 326.6,70.7 326.6,56 339.7,65 341.7,62.2 324.9,50.6 	"/>
	<polygon class="st1" points="358.5,22.2 356.5,19.4 326.6,40.1 326.6,0.1 323.2,0.1 323.2,40 293.4,19.4 291.4,22.2 321.9,43.4
		297.5,60.3 298.5,61.7 299.5,63.1 299.5,63.1 299.5,63.1 299.5,63.1 325,45.5 350.4,63.1 352.4,60.3 328,43.4 	"/>
	<polygon class="st1" points="301.4,52 314.2,43.4 295.6,29.8 293.5,32.6 308.2,43.3 299.5,49.2 	"/>
	<polygon class="st1" points="318.8,8.3 315.3,8.4 315.5,25.3 305.5,17.3 303.3,20 319.1,32.5 	"/>
	<polygon class="st1" points="344.3,16.4 334.3,24.4 334.4,7.5 331,7.4 330.7,31.6 346.5,19.1 	"/>
	<polygon class="st1" points="335.9,43.4 348.7,52 350.7,49.2 342,43.3 356.6,32.6 354.6,29.8 	"/>
</g>
<g>
	<path class="st0" d="M0.2,119.3H3v23.1H0.1L0.2,119.3L0.2,119.3z"/>
	<path class="st0" d="M22.5,133v9.4h-2.7v-9.2c0-3.5-1.6-5.3-4.6-5.3c-3.2,0-5.1,2.3-5.1,6.1v8.4H7.4v-16.8h2.3l0.4,2.3
		c1-1.3,2.7-2.5,5.5-2.5C19.5,125.4,22.5,127.5,22.5,133z"/>
	<path class="st0" d="M28.4,136.9c0.1,2,1.8,3.4,4.7,3.4c2.4,0,4.1-1,4.1-2.6c0-2.1-1.8-2.3-4.4-2.6c-3.8-0.5-6.8-1.2-6.8-4.7
		c0-3.1,2.8-5.1,6.6-5c3.8,0,6.6,1.8,6.9,5.3h-2.8c-0.2-1.7-1.8-3-4.1-3s-3.9,1-3.9,2.5c0,1.8,1.8,2.1,4.2,2.4
		c3.8,0.5,6.9,1.2,6.9,4.9c0,3.1-3,5.1-6.7,5.1c-4.4,0-7.4-2-7.4-5.7L28.4,136.9L28.4,136.9z"/>
	<path class="st0" d="M54.9,125.6h2.7v16.8h-2.3l-0.4-2.2c-1,1.3-2.6,2.4-5.4,2.4c-3.7,0-6.6-2.1-6.6-7.7v-9.4h2.7v9.2
		c0,3.5,1.6,5.3,4.4,5.3c3.1,0,4.9-2.3,4.9-6.1C54.9,133.9,54.9,125.6,54.9,125.6z"/>
	<path class="st0" d="M70.1,125.6v2.6h-1.4c-3.5,0-4.5,2.9-4.5,5.6v8.6h-2.7v-16.8h2.3l0.4,2.5c0.8-1.3,2.1-2.5,5.1-2.5L70.1,125.6
		L70.1,125.6z"/>
	<path class="st0" d="M87.9,139.9v2.5h-1.5c-2.2,0-3-1-3-2.6c-1.1,1.5-2.7,2.8-5.6,2.8c-3.7,0-6.2-1.8-6.2-4.9
		c0-3.4,2.3-5.2,6.8-5.2h4.9v-1.2c0-2.2-1.6-3.5-4.2-3.5c-2.4,0-4,1.1-4.3,2.8h-2.7c0.4-3.3,3.1-5.2,7.1-5.2c4.3,0,6.8,2.1,6.8,6.1
		v7.4c0,0.9,0.3,1.1,1.1,1.1h0.8V139.9z M83.3,134.7h-5.2c-2.4,0-3.8,0.9-3.8,2.8c0,1.6,1.4,2.8,3.7,2.8c3.4,0,5.3-1.9,5.3-4.8
		V134.7z"/>
	<path class="st0" d="M105.4,133v9.4h-2.7v-9.2c0-3.5-1.6-5.3-4.6-5.3c-3.2,0-5.1,2.3-5.1,6.1v8.4h-2.7v-16.8h2.3l0.4,2.3
		c1-1.3,2.7-2.5,5.5-2.5C102.4,125.4,105.4,127.5,105.4,133z"/>
	<path class="st0" d="M108.4,134c0-5.1,3.3-8.6,8.2-8.6c4.1,0,6.7,2.3,7.4,6h-2.8c-0.5-2.2-2.1-3.6-4.6-3.6c-3.2,0-5.4,2.6-5.4,6.2
		s2.2,6.2,5.4,6.2c2.4,0,4.1-1.4,4.6-3.5h2.9c-0.7,3.6-3.4,5.9-7.5,5.9C111.6,142.6,108.4,139.3,108.4,134z"/>
	<path class="st0" d="M126.7,134c0-5.1,3.2-8.6,8-8.6s7.9,3,8,8c0,0.4,0,0.8-0.1,1.2h-13.1v0.2c0.1,3.2,2.1,5.4,5.3,5.4
		c2.4,0,4.2-1.3,4.8-3.4h2.7c-0.7,3.4-3.4,5.8-7.3,5.8C130,142.6,126.7,139.2,126.7,134z M139.8,132.3c-0.3-2.9-2.2-4.5-5-4.5
		c-2.5,0-4.8,1.8-5,4.5H139.8z"/>
	<path class="st0" d="M153.3,125.6h3v-1.9c0-3,1.3-4.4,4.4-4.4h3.1v2.5h-2.9c-1.4,0-1.8,0.6-1.8,1.8v1.9h4.8v2.5H159v14.4h-2.7V128
		h-3V125.6z"/>
	<path class="st0" d="M164.7,134c0-5.1,3.4-8.6,8.3-8.6c4.9,0,8.3,3.5,8.3,8.6s-3.4,8.6-8.3,8.6C168.1,142.6,164.7,139.1,164.7,134z
		 M178.6,134c0-3.6-2.2-6.2-5.6-6.2s-5.6,2.6-5.6,6.2s2.2,6.2,5.6,6.2S178.6,137.6,178.6,134z"/>
	<path class="st0" d="M193.4,125.6v2.6H192c-3.5,0-4.5,2.9-4.5,5.6v8.6h-2.7v-16.8h2.3l0.4,2.5c0.8-1.3,2.1-2.5,5.1-2.5L193.4,125.6
		L193.4,125.6z"/>
	<path class="st0" d="M216.8,125.6h2.7v16.8h-2.3l-0.4-2.2c-1,1.3-2.6,2.4-5.4,2.4c-3.7,0-6.6-2.1-6.6-7.7v-9.4h2.7v9.2
		c0,3.5,1.6,5.3,4.4,5.3c3.1,0,4.9-2.3,4.9-6.1L216.8,125.6L216.8,125.6z"/>
	<path class="st0" d="M225.6,136.9c0.1,2,1.8,3.4,4.7,3.4c2.4,0,4.1-1,4.1-2.6c0-2.1-1.8-2.3-4.4-2.6c-3.8-0.5-6.8-1.2-6.8-4.7
		c0-3.1,2.8-5.1,6.6-5c3.8,0,6.6,1.8,6.9,5.3h-2.8c-0.2-1.7-1.8-3-4.1-3s-3.9,1-3.9,2.5c0,1.8,1.8,2.1,4.2,2.4
		c3.8,0.5,6.9,1.2,6.9,4.9c0,3.1-3,5.1-6.7,5.1c-4.4,0-7.4-2-7.4-5.7L225.6,136.9L225.6,136.9z"/>
</g>
</svg>
