<?xml version="1.0" encoding="utf-8"?>
<!-- Generator: Adobe Illustrator 26.4.1, SVG Export Plug-In . SVG Version: 6.00 Build 0)  -->
<svg version="1.1" id="Layer_1" xmlns="http://www.w3.org/2000/svg" xmlns:xlink="http://www.w3.org/1999/xlink" x="0px" y="0px"
	 width="67.3px" height="71px" viewBox="0 0 67.3 71" style="enable-background:new 0 0 67.3 71;" xml:space="preserve">
<style type="text/css">
	.st0{fill:currentColor;}
</style>
<g>
	<polygon class="st0" points="17.1,62.2 19.1,65.1 31.9,56.1 31.9,70.8 35.3,70.8 35.3,56.1 48.4,65.1 50.4,62.2 33.6,50.7"/>
	<polygon class="st0" points="67.2,22.3 65.2,19.4 35.3,40.1 35.3,0.2 31.9,0.2 31.9,40.1 2.1,19.4 0.1,22.3 30.6,43.4 6.2,60.3 7.2,61.8 8.2,63.2 8.2,63.2 8.2,63.2 8.2,63.1 33.7,45.6 59.1,63.2 61.1,60.3 36.7,43.4"/>
	<polygon class="st0" points="10.1,52.1 22.9,43.4 4.3,29.9 2.2,32.7 16.9,43.3 8.2,49.2"/>
	<polygon class="st0" points="27.5,8.4 24,8.4 24.2,25.3 14.2,17.3 12,20 27.8,32.6"/>
	<polygon class="st0" points="53,16.4 43,24.4 43.1,7.5 39.7,7.5 39.4,31.7 55.2,19.1"/>
	<polygon class="st0" points="44.6,43.4 57.4,52.1 59.4,49.2 50.7,43.3 65.3,32.7 63.3,29.9"/>
</g>
</svg>
