<?xml version="1.0" encoding="utf-8"?>
<!-- Generator: Adobe Illustrator 27.0.1, SVG Export Plug-In . SVG Version: 6.00 Build 0)  -->
<svg version="1.1" id="Layer_1" xmlns="http://www.w3.org/2000/svg" xmlns:xlink="http://www.w3.org/1999/xlink" x="0px" y="0px"
	 viewBox="0 0 1020 1020" style="enable-background:new 0 0 1020 1020;" xml:space="preserve">
<style type="text/css">
	.st0{fill:#6041F7;}
</style>
<g>
	<g>
		<g>
			<path class="st0" d="M438.5,990.2c-9.5,0-18.1-6.4-20.9-15.5l-0.1-0.4c-5.9-19.3-59.1-190.4-126.4-257.7
				c-16.4-15.2-29-40.4-33.9-67.4c-5.3-29.3-0.4-56,13.6-73.2c11.3-14.1,27.5-21.5,46.9-21.5c19.2,0,42,7.1,67.8,21.2V321.8
				c0-36.8,29.9-66.8,66.6-66.8c37.3,0,67.6,30,67.6,66.8v99.4c7.5-2.9,15.3-4.3,23.2-4.3c29.3,0,54.8,18.5,64,45.5
				c8.8-4,17.9-6,26.9-6c29.7,0,55.3,18.7,64.2,46.2c8.5-3.8,17.4-5.8,26.5-5.8c37.3,0,67.7,29.9,67.7,66.7v146.9l-0.4,0.7
				c-0.1,0.7-0.3,1.5-0.5,2.3l-0.1,0.5l-0.1,0.2c-5.7,19.3-55.6,190.7-58.5,255.4c-0.6,11.6-10.1,20.7-21.7,20.7H438.5z M691,946.8
				c9.2-75.4,49-213.3,57.6-242.5V563.5c0-12.8-10.5-23.2-23.3-23.2c-13.5,0-24.1,10.2-24.1,23.2v51.4c0,12-9.7,21.8-21.7,21.8
				s-21.7-9.8-21.7-21.8v-91.8c0-12.7-10.4-23.1-23.2-23.1c-13.6,0-24.2,10.1-24.2,23.1v69.8c0,12-9.8,21.8-21.8,21.8
				s-21.8-9.8-21.8-21.8V483.5c0-12.7-10.4-23.1-23.2-23.1c-13.5,0-24.1,10.1-24.1,23.1v89.6c0,12-9.8,21.8-21.8,21.8
				c-12,0-21.7-9.8-21.7-21.8V321.8c0-12.8-10.4-23.3-23.2-23.3c-13.5,0-24.1,10.2-24.1,23.3v385.9c0,12-9.8,21.8-21.8,21.8
				c-12,0-21.7-9.8-21.7-21.8v-81c-27.9-18.3-51.7-28.4-67.2-28.4c-6.4,0-10.9,1.7-13.6,5.1c-5.6,6.9-7.3,22.1-4.3,38.5
				c3.2,17.6,11.2,34.2,20.9,43.3l0.2,0.2c29.5,29.5,59,77.2,87.7,141.8c21.6,48.6,37.4,94.7,45.3,119.6H691z"/>
		</g>
		<g>
			<path class="st0" d="M278.5,416c-104.9,0-190.2-85.3-190.2-190.2c0-104.9,85.3-190.2,190.2-190.2s190.2,85.3,190.2,190.2
				c0,12-9.8,21.7-21.8,21.7s-21.8-9.7-21.8-21.7c0-80.9-65.8-146.7-146.7-146.7s-146.7,65.8-146.7,146.7s65.8,146.7,146.7,146.7
				c24.5,0,48.6-6.1,69.9-17.7l0.1-0.1c3.2-1.7,6.7-2.6,10.3-2.6c8,0,15.3,4.3,19.1,11.3c2.8,5.1,3.4,10.9,1.7,16.6
				c-1.7,5.6-5.4,10.2-10.5,12.9C341.7,408,310.4,416,278.5,416z"/>
		</g>
		<g>
			<path class="st0" d="M745.5,416c-104.9,0-190.2-85.3-190.2-190.2c0-104.9,85.3-190.2,190.2-190.2s190.2,85.3,190.2,190.2
				C935.7,330.7,850.4,416,745.5,416z M745.5,79.1c-80.9,0-146.7,65.8-146.7,146.7s65.8,146.7,146.7,146.7s146.7-65.8,146.7-146.7
				S826.4,79.1,745.5,79.1z"/>
		</g>
	</g>
	<g>
		<path class="st0" d="M248.4,298.5c-5,0-9.8-1.9-13.5-5.4l-0.2-0.2l-48.5-48.5c-7.5-7.5-7.5-19.7,0-27.2c3.6-3.6,8.5-5.6,13.7-5.6
			c5,0,9.8,1.9,13.5,5.4l0.2,0.2l34.9,34.9l80.5-80.5c3.6-3.6,8.5-5.6,13.7-5.6c5,0,9.8,1.9,13.5,5.4l0.2,0.2
			c7.5,7.5,7.5,19.7,0,27.2l-94.2,94C258.4,296.5,253.5,298.5,248.4,298.5z"/>
	</g>
	<g>
		<g>
			<path class="st0" d="M749.9,245.9c-5.3,0-10.3-2.1-14.1-5.8l-52.9-52.9c-3.8-3.8-5.8-8.8-5.8-14.1c0-5.5,2.1-10.5,5.9-14.2
				c3.7-3.7,8.7-5.7,14-5.7c5.3,0,10.3,2.1,14.1,5.8l38.8,38.8l40-37.8c3.7-3.6,8.8-5.7,14-5.7c5.3,0,10.3,2.1,14.1,5.8
				c3.8,3.8,5.8,8.8,5.8,14.1c0,5.3-2.1,10.3-5.8,14.1l-54,51.7C760.2,243.7,755.1,245.9,749.9,245.9z"/>
		</g>
		<g>
			<path class="st0" d="M803.9,300.9c-5.3,0-10.3-2.1-14.1-5.8L751,256.3l-40,37.8c-3.7,3.6-8.8,5.7-14,5.7
				c-5.3,0-10.3-2.1-14.1-5.8c-3.8-3.8-5.8-8.8-5.8-14.1s2.1-10.3,5.8-14.1l54.1-51.8c3.7-3.6,8.8-5.7,14-5.7
				c5.3,0,10.3,2.1,14.1,5.8l52.8,52.8c3.8,3.8,5.8,8.8,5.8,14.1c0,5.5-2.1,10.5-5.9,14.2C814.1,298.9,809.2,300.9,803.9,300.9z"/>
		</g>
	</g>
</g>
</svg>
