<?xml version="1.0" encoding="utf-8"?>
<!-- Generator: Adobe Illustrator 27.0.1, SVG Export Plug-In . SVG Version: 6.00 Build 0)  -->
<svg version="1.1" id="Layer_1" xmlns="http://www.w3.org/2000/svg" xmlns:xlink="http://www.w3.org/1999/xlink" x="0px" y="0px"
	 viewBox="0 0 1020 1020" style="enable-background:new 0 0 1020 1020;" xml:space="preserve">
<style type="text/css">
	.st0{fill:#6041F7;}
</style>
<g>
	<g>
		<path class="st0" d="M164.7,266.8c-10.6,0-19.2-8.6-19.2-19.2s8.6-19.2,19.2-19.2h478.8c10.6,0,19.2,8.6,19.2,19.2
			s-8.6,19.2-19.1,19.2H164.7z"/>
	</g>
	<g>
		<path class="st0" d="M164.7,367.4c-10.6,0-19.2-8.6-19.2-19.2s8.6-19.2,19.2-19.2h301.9c10.6,0,19.2,8.6,19.2,19.2
			s-8.6,19.2-19.1,19.2H164.7z"/>
	</g>
	<g>
		<path class="st0" d="M164.7,664.5c-10.6,0-19.2-8.6-19.2-19.2s8.6-19.2,19.2-19.2h282.4c10.6,0,19.2,8.6,19.2,19.2
			s-8.6,19.2-19.1,19.2H164.7z"/>
	</g>
	<g>
		<path class="st0" d="M898.6,506.9c-5,0-9.7-1.9-13.3-5.4l-98-94.6c-7.5-7.4-7.8-19.5-0.6-27.1l0.1-0.1c3.6-3.7,8.6-5.8,13.8-5.8
			c4.9,0,9.6,1.9,13.2,5.3l98,94.6c7.5,7.4,7.8,19.5,0.6,27.1C908.9,504.8,903.8,506.9,898.6,506.9z"/>
	</g>
	<g>
		<path class="st0" d="M164.7,563.8c-10.6,0-19.2-8.6-19.2-19.2s8.6-19.2,19.2-19.2h347.4c10.6,0,19.2,8.6,19.2,19.2
			s-8.6,19.2-19.2,19.2H164.7z"/>
	</g>
</g>
<path class="st0" d="M142.7,916.4c-58.1,0-105.3-47.2-105.3-105.3V206.5c0-58.1,47.2-105.3,105.3-105.3h575.6
	c58.1,0,105.3,47.2,105.3,105.3v191h-41.9v-191c0-35-28.4-63.4-63.4-63.4H142.7c-35,0-63.4,28.4-63.4,63.4v604.6
	c0,35,28.4,63.4,63.4,63.4h575.6c35,0,63.4-28.4,63.4-63.4V572.7h41.9v238.4c0,58.1-47.2,105.3-105.3,105.3H142.7z"/>
<path class="st0" d="M477.3,832.1c-5.5,0-11-2.3-15-6.2c-6.1-6.1-7.9-15.2-4.5-23.2L530,633.2c1-2.5,2.5-4.7,4.6-6.7l315.1-315.2
	c3.9-3.9,9.2-6,15-6c5.8,0,11.1,2.1,15,6l97.4,97.4c4,4,6.2,9.3,6.2,15c0,5.5-2.3,11-6.2,15L661.7,753.8c-1.9,1.9-4.2,3.5-6.6,4.5
	l-169.4,72.1C483.1,831.5,480.3,832.1,477.3,832.1z M517.2,771l117.4-50l297.4-297.4l-67.5-67.5L567.2,653.5L517.2,771z"/>
</svg>
