<?xml version="1.0" encoding="utf-8"?>
<!-- Generator: Adobe Illustrator 27.0.1, SVG Export Plug-In . SVG Version: 6.00 Build 0)  -->
<svg version="1.1" id="Layer_1" xmlns="http://www.w3.org/2000/svg" xmlns:xlink="http://www.w3.org/1999/xlink" x="0px" y="0px"
	 viewBox="0 0 1020 1020" style="enable-background:new 0 0 1020 1020;" xml:space="preserve">
<style type="text/css">
	.st0{fill:#6041F7;}
</style>
<g>
	<g>
		<path class="st0" d="M290.9,146.4c-31.5,0-57.2-25.7-57.2-57.2c0-31.5,25.7-57.2,57.2-57.2c31.5,0,57.2,25.7,57.2,57.2
			C348.1,120.7,322.4,146.4,290.9,146.4z M290.9,68.2c-11.6,0-21,9.4-21,21s9.4,21,21,21s21-9.4,21-21S302.5,68.2,290.9,68.2z"/>
		<path class="st0" d="M290.9,139.4c-27.7,0-50.2-22.5-50.2-50.2S263.2,39,290.9,39s50.2,22.5,50.2,50.2S318.6,139.4,290.9,139.4z
			 M290.9,61.2c-15.4,0-28,12.6-28,28s12.6,28,28,28s28-12.6,28-28S306.4,61.2,290.9,61.2z"/>
		<g>
			<g>
				<path class="st0" d="M262.4,563.1c-9.5,0-17.3-7.2-18.1-16.7l-9.8-136.3H212c-5.4,0-10.7-2.5-14-6.7c-3.4-4.2-4.7-9.6-3.7-14.9
					l30.2-148.9c1.7-8.4,9.2-14.5,17.8-14.5c1.2,0,2.4,0.1,3.6,0.4c9.8,2,16.2,11.5,14.2,21.3l-25.8,127.1h17.2
					c9.5,0,17.4,7.4,18.1,16.8l11,153c0.6,9.9-6.8,18.6-16.7,19.4l-0.3,0H262.4z"/>
				<path class="st0" d="M262.4,556.1c-5.8,0-10.6-4.5-11.1-10.3L241,403.1h-29c-3.3,0-6.5-1.5-8.6-4.1s-2.9-6-2.3-9.2L231.3,241
					c1.2-6,7.1-9.9,13.1-8.7s9.9,7.1,8.7,13.1l-27.5,135.5h25.8c5.8,0,10.7,4.5,11.1,10.3l11,153c0.4,6.1-4.2,11.4-10.3,11.9
					C262.9,556.1,262.6,556.1,262.4,556.1z"/>
				<path class="st0" d="M325,472l-0.2,0c-4.8-0.3-9.2-2.5-12.4-6.2c-3.1-3.7-4.7-8.3-4.4-13.1l4.5-61.9c0.6-9.4,8.6-16.8,18.1-16.8
					h17.2l-25.8-127.2c-2-9.8,4.4-19.4,14.2-21.4c1.2-0.2,2.4-0.4,3.6-0.4c8.6,0,16.1,6.1,17.8,14.5l30.2,148.9
					c1.1,5.2-0.2,10.7-3.7,15c-3.4,4.2-8.6,6.7-14,6.7h-22.5l-3.2,45.1c-0.8,9.6-8.6,16.8-18.2,16.8H325z"/>
				<path class="st0" d="M326,465c-0.3,0-0.5,0-0.8,0c-6.1-0.4-10.7-5.8-10.3-11.9l4.5-61.9c0.4-5.8,5.2-10.3,11.1-10.3h25.8
					l-27.5-135.6c-1.2-6,2.7-11.9,8.7-13.1c6-1.2,11.9,2.7,13.1,8.7l30.2,148.9c0.7,3.3-0.2,6.6-2.3,9.2c-2.1,2.6-5.3,4.1-8.6,4.1
					h-29l-3.7,51.6C336.7,460.6,331.8,465,326,465z"/>
			</g>
			<path class="st0" d="M173,367.6c-1.1,0-2.3-0.1-3.2-0.3l-0.2,0l-0.2,0c-4.7-0.9-8.8-3.7-11.5-7.7c-2.7-4-3.6-8.9-2.7-13.6
				l31.3-155.5c4.5-24.1,24.7-41.7,48-41.7h112.6c22.6,0,42.6,16.9,47.7,40.2l52.5,137.7c1.7,4.5,1.6,9.4-0.4,13.8
				c-2,4.4-5.5,7.8-10,9.5c-2.1,0.8-4.2,1.2-6.5,1.2c-7.4,0-14.2-4.7-16.9-11.6l-53.1-139.3l0-0.1c-0.4-1.1-0.6-2.1-0.8-3
				c-1.3-7.1-6.5-12.3-12.5-12.3H234.6c-5.9,0-11.2,5.2-12.5,12.4l-31.4,155.6C189.1,361.4,181.6,367.6,173,367.6z"/>
			<path class="st0" d="M173,360.6c-0.7,0-1.5-0.1-2.2-0.2c-6-1.2-9.9-7.1-8.7-13.1l31.3-155.5c3.9-20.8,21.2-36.1,41.1-36.1h112.6
				c19.6,0,36.7,14.7,41,35.2l52.7,138.2c2.2,5.7-0.7,12.1-6.4,14.3c-5.7,2.2-12.1-0.7-14.3-6.4l-53-139.1c-0.2-0.6-0.4-1.3-0.5-1.9
				c-1.9-10.5-10.1-18.1-19.4-18.1H234.6c-9.3,0-17.4,7.6-19.4,18.1l-31.4,155.6C182.8,357,178.2,360.6,173,360.6z"/>
		</g>
	</g>
	<g>
		<path class="st0" d="M751.9,146.4c-31.5,0-57.2-25.7-57.2-57.2c0-31.5,25.7-57.2,57.2-57.2s57.2,25.7,57.2,57.2
			C809.1,120.7,783.4,146.4,751.9,146.4z M751.9,68.2c-11.6,0-21,9.4-21,21s9.4,21,21,21s21-9.4,21-21S763.5,68.2,751.9,68.2z"/>
		<path class="st0" d="M751.9,139.4c-27.7,0-50.2-22.5-50.2-50.2S724.2,39,751.9,39s50.2,22.5,50.2,50.2S779.6,139.4,751.9,139.4z
			 M751.9,61.2c-15.4,0-28,12.6-28,28s12.6,28,28,28s28-12.6,28-28S767.3,61.2,751.9,61.2z"/>
		<g>
			<path class="st0" d="M796,507.3c-4.8-0.1-9.3-2-12.7-5.5c-3.4-3.5-5.2-8.1-5.1-12.9l2.4-123.5V243.2c0-10,8.1-18.1,18.1-18.1
				s18.1,8.1,18.1,18.1l0,122.6l-2.4,123.7c-0.3,9.8-8.4,17.8-18.1,17.8L796,507.3z"/>
			<path class="st0" d="M796.3,500.3c-0.1,0-0.2,0-0.2,0c-6.1-0.1-11-5.2-10.9-11.3l2.4-123.5V243.2c0-6.1,5-11.1,11.1-11.1
				s11.1,5,11.1,11.1v122.5l-2.4,123.7C807.2,495.4,802.3,500.3,796.3,500.3z"/>
			<path class="st0" d="M711.5,454.9c-9.4,0-17.3-7.3-18-16.7l-6.4-79.3l0.2-115.7c0-10,8.1-18.1,18.1-18.1s18.1,8.1,18.1,18.1
				l-0.3,114.2l6.4,77.9c0.4,4.8-1.1,9.5-4.2,13.2c-3.1,3.7-7.5,5.9-12.4,6.3l-0.3,0H711.5z"/>
			<path class="st0" d="M711.5,447.9c-5.7,0-10.6-4.4-11-10.2l-6.4-79.1l0.2-115.4c0-6.1,5-11.1,11.1-11.1l0,0
				c6.1,0,11.1,5,11.1,11.1l-0.3,114.5l6.4,78.2c0.5,6.1-4,11.5-10.2,12C712.1,447.9,711.8,447.9,711.5,447.9z"/>
		</g>
		<path class="st0" d="M847,367.6c-10,0-18.1-8.1-18.1-18.1V201.9c0-9.3-6.1-16.9-13.7-16.9H690.8c-5.9,0-11.1,5.2-12.4,12.3
			l-27.9,134.6c-1.7,8.3-9.1,14.4-17.7,14.4c-1.2,0-2.4-0.1-3.6-0.4c-4.8-1-8.9-3.7-11.5-7.8c-2.7-4.1-3.6-8.9-2.5-13.7l27.8-134.1
			c4.5-24.1,24.6-41.7,48-41.7h124.5c27.5,0,49.9,23.8,49.9,53.1l0,147.7C865,359.7,857,367.6,847,367.6z"/>
		<path class="st0" d="M847,360.6c-6.1,0-11.1-5-11.1-11.1V201.9c0-13.2-9.3-23.9-20.7-23.9H690.8c-9.3,0-17.4,7.6-19.3,18.1
			l-27.9,134.4c-1.2,6-7.1,9.8-13.1,8.6c-6-1.2-9.9-7.1-8.6-13.1l27.8-134.2c3.8-20.8,21.2-36,41.1-36h124.5
			c23.7,0,42.9,20.7,42.9,46.1v147.6C858.1,355.7,853.2,360.6,847,360.6z"/>
	</g>
	<g>
		<path class="st0" d="M527.7,219c-28.4,0-51.5-23.1-51.5-51.5s23.1-51.5,51.5-51.5c28.4,0,51.5,23.1,51.5,51.5S556.1,219,527.7,219
			z M527.7,152.1c-8.4,0-15.3,6.9-15.3,15.3s6.9,15.3,15.3,15.3s15.3-6.9,15.3-15.3S536.1,152.1,527.7,152.1z"/>
		<path class="st0" d="M527.7,212c-24.5,0-44.5-20-44.5-44.5s20-44.5,44.5-44.5s44.5,20,44.5,44.5S552.3,212,527.7,212z
			 M527.7,145.1c-12.3,0-22.3,10-22.3,22.3s10,22.3,22.3,22.3s22.3-10,22.3-22.3S540,145.1,527.7,145.1z"/>
		<g>
			<path class="st0" d="M568.5,367.6c-10,0-18.1-8.1-18.1-18.1v-61.7c0-10,8.1-18.1,18.1-18.1s18.1,8.1,18.1,18.1v61.6
				c0.1,4.8-1.8,9.3-5.1,12.7C578,365.7,573.4,367.6,568.5,367.6z"/>
			<path class="st0" d="M568.5,360.6c-6.1,0-11.1-5-11.1-11.1v-61.7c0-6.1,5-11.1,11.1-11.1s11.1,5,11.1,11.1v61.7
				C579.7,355.6,574.7,360.6,568.5,360.6z"/>
			<path class="st0" d="M486.4,367.6c-10,0-18.1-8.1-18.1-18.1l0.2-61.8c0-10,8.1-18.1,18.1-18.1s18.1,8.1,18.1,18.1l-0.2,61.8
				C504.5,359.5,496.4,367.6,486.4,367.6z"/>
			<path class="st0" d="M486.4,360.6L486.4,360.6c-6.2,0-11.1-5-11.1-11.1l0.2-61.8c0-6.1,5-11.1,11.1-11.1l0,0
				c6.1,0,11.1,5,11.1,11.1l-0.2,61.8C497.5,355.6,492.5,360.6,486.4,360.6z"/>
		</g>
		<path class="st0" d="M430.5,351.3c-2.4,0-4.8-0.5-7.1-1.4l-0.3-0.1c-9-4-13.2-14.7-9.3-23.7l41.4-93.8c3-6.6,9.5-10.8,16.6-10.8
			h109.7c6.6,0,12.4,3.4,15.7,9.1l51.1,88.8c2.4,4.1,3.1,9.1,1.8,13.8c-1.3,4.6-4.3,8.5-8.4,11c-2.8,1.6-5.9,2.4-9,2.4
			c-6.5,0-12.5-3.5-15.7-9l-45.9-79.7h-87.4l-36.6,83C444.1,347.2,437.6,351.3,430.5,351.3z"/>
		<path class="st0" d="M430.5,344.3c-1.5,0-3-0.3-4.5-0.9c-5.6-2.5-8.1-9-5.7-14.6l41.4-93.7c1.8-4,5.8-6.6,10.2-6.6h109.7
			c4,0,7.6,2.1,9.6,5.6l51.1,88.8c3.1,5.3,1.2,12.1-4.1,15.2c-5.3,3-12.1,1.2-15.2-4.1l-47.9-83.2h-96l-38.4,87.1
			C438.9,341.8,434.8,344.3,430.5,344.3z"/>
	</g>
	<g>
		<g>
			<path class="st0" d="M521,974.3c-73.2-29.5-133.2-73.5-178.3-131c-36-45.7-62.5-99.9-78.9-161.1c-25.9-96.3-18.3-178-16.5-193.4
				l1.2-10.9l272.1-151.3c2.8-1.5,5.9-2.3,9-2.3c3.2,0,6.3,0.8,9,2.3l272.1,151.3l1.4,10.4c0.1,0.8,11.8,88.5-16.5,193.8
				c-16.5,61.3-43.1,115.5-79,161.1c-45,57.5-104.9,101.6-178.1,131.1l-8.8,3.6L521,974.3z M529.8,360.3c-0.8,0-1.5,0.2-2.1,0.5
				L283,496.8c-0.9,0.5-1.6,1.4-1.6,2.2c-1.8,26.5-3.8,96.3,17.3,174.4c15.7,57.8,40.7,108.8,74.3,151.6
				c39.7,50.3,91.8,89.6,154.9,116.9c0.6,0.3,1.3,0.4,2,0.4c0.6,0,1.3-0.1,1.8-0.4c63.2-27.4,115.3-66.7,155-116.9
				c33.8-43,58.8-94,74.3-151.6c21.1-78,19.1-147.9,17.3-174.3c-0.1-0.9-0.7-1.7-1.7-2.3L532,360.8
				C531.4,360.5,530.6,360.3,529.8,360.3z"/>
			<path class="st0" d="M255.1,482.3l269-149.6c3.5-1.9,7.8-1.9,11.2,0l269,149.6l0.9,6.9c0.5,3.6,11.1,89.1-16.3,191.1
				c-16.2,60.2-42.3,113.6-77.7,158.6C667,895.4,608,938.8,536,967.8l-6.2,2.5l-6.2-2.5c-72-29-131-72.3-175.4-128.8
				c-35.4-45-61.5-98.4-77.6-158.6c-27.4-102-16.7-187.5-16.3-191.1 M780,490.7l-244.6-136c-3.5-1.9-7.8-1.9-11.2,0l-244.6,136
				c-3,1.7-5,4.6-5.2,7.9c-1.9,27.4-3.8,97.8,17.5,176.6c15.9,58.7,41.3,110.5,75.6,154.1c40.4,51.2,93.3,91.2,157.6,119
				c3,1.3,6.5,1.3,9.4,0c64.2-27.8,117.2-67.8,157.6-119c34.3-43.6,59.8-95.4,75.6-154.1c21.3-78.8,19.4-149.2,17.5-176.6
				C785,495.3,783,492.4,780,490.7z"/>
			<path class="st0" d="M519.8,977.1c-73.8-29.7-134.2-74.1-179.6-132c-36.3-46.4-63.1-101-79.5-162.3
				c-26-97.1-18.4-179.1-16.6-194.6l0.8-7.4l1.4,0.2l-2.4-4.2l275.2-153c3.2-1.8,6.8-2.8,10.6-2.8s7.4,1,10.6,2.8l273.4,152.1
				l1.6,12c0.1,0.8,11.9,89.1-16.6,195c-16.6,61.6-43.3,116.2-79.5,162.3c-45.6,58.1-106.1,102.5-179.6,132l-9.8,4L519.8,977.1z
				 M529,938.8c0.2,0.1,0.5,0.1,0.8,0.1c0.4,0,0.6-0.1,0.7-0.1c62.5-27,114.2-66,153.6-115.9c33.5-42.6,58.3-93.2,73.7-150.5
				c21-77.8,19.1-146.6,17.2-172.9c0,0-0.1,0-0.1-0.1L530.1,363.4c-0.1,0-0.2,0-0.3,0c0,0-0.4,0-1,0.3c0,0-244.4,135.9-244.4,135.9
				c-1.8,26.6-3.6,96,17.2,172.9c15.5,57.3,40.4,108,73.7,150.5C414.7,872.8,466.3,911.8,529,938.8z M264.2,490.5
				c-0.1,0.8-11.3,85,16,187.1c15.7,58.8,41.2,110.9,75.8,155c15,19.1,31.7,36.6,50.1,52.6c-17-15.2-32.6-31.7-46.7-49.5
				c-35.1-44.6-61.2-97.6-77.5-157.7c-21.9-80.8-19.7-152.8-17.8-180c0.3-4.6,2.2-8.8,5.4-12.1l-5.1,2.8L264.2,490.5z M790.1,485.9
				c3,3.3,4.9,7.5,5.2,12c1.8,27.4,3.8,99.8-17.8,180C761.2,738,735.1,791.1,700,835.6c-13.6,17.2-28.5,33.2-44.7,47.8
				c17.6-15.5,33.6-32.5,48-50.9c34.5-43.9,60-96,75.8-155c27.3-102.1,16.1-186.3,16-187.1l-0.2-1.9L790.1,485.9z M529.8,343.1
				c1.5,0,3,0.2,4.5,0.5l-3.7-2.1c-0.2-0.1-0.4-0.2-0.7-0.2c-0.3,0-0.5,0.1-0.7,0.2l-3.7,2.1C526.8,343.3,528.3,343.1,529.8,343.1z"
				/>
			<path class="st0" d="M529.8,973.6l-7.4-3c-72.5-29.2-132-72.8-176.7-129.8c-35.6-45.4-62-99.1-78.2-159.8
				c-27.5-102.7-16.8-188.7-16.4-192.3l6.2,0.8c-0.5,3.6-11,88.4,16.2,189.9c16,59.8,42,112.8,77.1,157.5
				C394.7,893,453.2,936,524.7,964.8l5,2l5-2c71.5-28.7,130.1-71.8,174.1-127.9c35.1-44.7,61-97.7,77.1-157.5
				c27.1-101.2,16.7-186.3,16.2-189.9l-0.7-5.3L533.9,335.4c-2.5-1.4-5.7-1.4-8.2,0L256.6,485l-3.1-5.5l269-149.6
				c4.4-2.5,9.9-2.5,14.3,0l270.4,150.4l1.1,8.5c0.5,3.6,11.1,90-16.4,192.3c-16.3,60.6-42.6,114.4-78.2,159.8
				c-44.8,57-104.2,100.7-176.7,129.8L529.8,973.6z M529.8,952.4c-2,0-4.1-0.4-6-1.2c-64.7-28-118.1-68.3-158.8-119.9
				c-34.6-43.9-60.2-96.1-76.2-155.2c-21.5-79.5-19.5-150.8-17.6-177.7c0.3-4.3,2.9-8.2,6.8-10.4l244.6-136c4.4-2.5,9.9-2.5,14.3,0
				l244.6,136c4,2.2,6.5,6.1,6.8,10.4c1.8,26.9,3.8,98.2-17.6,177.7c-16,59.1-41.6,111.3-76.2,155.2c-40.7,51.6-94.1,92-158.8,119.9
				C533.9,952,531.8,952.4,529.8,952.4z M529.8,356.4c-1.4,0-2.8,0.4-4.1,1l-244.6,136c-2.1,1.2-3.5,3.1-3.6,5.3
				c-1.8,26.6-3.8,97,17.4,175.6c15.8,58.3,41,109.7,75,153c40,50.8,92.6,90.5,156.4,118c2.2,0.9,4.8,0.9,6.9,0
				c63.7-27.5,116.3-67.3,156.3-118c34-43.2,59.3-94.7,75-153c21.2-78.6,19.3-149,17.4-175.6c-0.2-2.2-1.5-4.1-3.6-5.3l-244.6-136
				C532.6,356.7,531.2,356.4,529.8,356.4z"/>
		</g>
		<g>
			<path class="st0" d="M495.7,738.8c-4.7,0-9.1-1.7-12.4-4.7l-72.4-66.6c-3.6-3.3-5.5-7.7-5.5-12.4c0-4.6,2-8.9,5.5-12.1
				c3.3-3,7.7-4.7,12.4-4.7c4.7,0,9.1,1.7,12.4,4.7l57,52.5c0.7,0.7,1.8,1.1,2.9,1.1c1.2,0,2.3-0.4,3-1.1l125.2-115.2
				c3.3-3.1,7.7-4.8,12.4-4.8c4.7,0,9.1,1.7,12.4,4.7c3.5,3.3,5.4,7.5,5.4,12.1c0,4.6-1.9,9-5.3,12.3L508.1,734.1
				C504.8,737.1,500.4,738.8,495.7,738.8z"/>
			<path class="st0" d="M415.6,648.1L415.6,648.1c4.2-3.9,11.1-3.9,15.4,0l57,52.5c4.2,3.9,11.1,3.9,15.4,0l125.2-115.2
				c4.2-3.9,11.1-3.9,15.4,0l0,0c4.2,3.9,4.2,10.2,0,14.2L503.4,728.9c-4.2,3.9-11.1,3.9-15.4,0l-72.4-66.6
				C411.3,658.3,411.3,652,415.6,648.1z"/>
			<path class="st0" d="M495.7,741.9c-5.5,0-10.7-2-14.6-5.6l-72.4-66.6c-4.2-3.9-6.5-9-6.5-14.6s2.3-10.7,6.4-14.5
				c3.9-3.6,9.1-5.6,14.6-5.6c5.5,0,10.6,2,14.6,5.6l57,52.5c0.2,0.1,0.5,0.2,0.8,0.2c0.3,0,0.7-0.1,0.9-0.3l125.3-115.3
				c3.9-3.6,9.1-5.6,14.6-5.6c5.5,0,10.6,2,14.6,5.6c4.2,3.9,6.5,9.1,6.5,14.6s-2.3,10.7-6.4,14.5L510.2,736.4
				C506.4,739.9,501.2,741.9,495.7,741.9z M494.8,721.4c0.2,0.1,0.5,0.3,0.8,0.3c0.3,0,0.6-0.1,0.9-0.3l140-128.9
				c-0.1,0-0.2,0-0.3,0c-0.3,0-0.7,0.1-0.9,0.3L510.2,708c-3.9,3.6-9.1,5.6-14.5,5.6c-5.5,0-10.6-2-14.6-5.6l-57.1-52.5
				c-0.2-0.2-0.5-0.3-0.9-0.3c-0.1,0-0.2,0-0.2,0L494.8,721.4z"/>
			<path class="st0" d="M495.7,734.9c-3.6,0-7.1-1.2-9.8-3.7l-72.4-66.6c-2.7-2.5-4.2-5.8-4.2-9.4c0-3.6,1.5-6.9,4.2-9.4
				c5.4-5,14.2-5,19.6,0l57,52.5c3.1,2.8,8,2.8,11.1,0L626.5,583c5.4-5,14.2-5,19.7,0c2.7,2.5,4.2,5.8,4.2,9.4
				c0,3.6-1.5,6.9-4.2,9.4L505.5,731.2C502.8,733.7,499.2,734.9,495.7,734.9z M423.2,648.3c-2,0-4,0.7-5.5,2.1l0,0
				c-1.4,1.3-2.2,3-2.2,4.8s0.8,3.5,2.2,4.8l72.4,66.6c3.1,2.8,8,2.8,11.1,0l140.6-129.4c1.4-1.3,2.2-3,2.2-4.8s-0.8-3.5-2.2-4.8
				c-3.1-2.8-8-2.8-11.1,0L505.5,702.9c-5.4,5-14.2,5-19.6,0l-57.1-52.5C427.3,649,425.3,648.3,423.2,648.3z"/>
		</g>
	</g>
</g>
</svg>
